<svg xmlns="http://www.w3.org/2000/svg" data-name="Layer 1" viewBox="0 0 100 125" x="0px" y="0px"><title>12</title><path d="M93.5,42H64.2V39.8a8,8,0,0,0-8-8h-14a3,3,0,0,1-3-3V25H67.5a3,3,0,0,0,3-3V6a3,3,0,0,0-3-3H7.5a3,3,0,0,0-3,3V22a3,3,0,0,0,3,3H33.2v3.8a9,9,0,0,0,9,9h14a2,2,0,0,1,2,2V42H33.5a3,3,0,0,0-3,3V61a3,3,0,0,0,3,3H74.2V82.8a2,2,0,0,1-2,2H69.5V78a3,3,0,0,0-3-3H6.5a3,3,0,0,0-3,3V94a3,3,0,0,0,3,3h60a3,3,0,0,0,3-3V90.8h2.7a8,8,0,0,0,8-8V64H93.5a3,3,0,0,0,3-3V45A3,3,0,0,0,93.5,42ZM10.5,9h54V19h-54Zm53,82H9.5V81h54Zm27-33h-54V48h54Z"/></svg>
